<svg width="16" height="20" viewBox="0 0 16 20" fill="none" xmlns="http://www.w3.org/2000/svg">
<g clip-path="url(#clip0_23_1343)">
<path d="M8.90095 4.82042C9.30185 5.54054 9.64122 6.13259 9.96669 6.73304C10.312 7.37128 10.2842 7.97174 9.64122 8.35594C9.02599 8.72125 8.55563 8.38743 8.23214 7.82057C7.46409 6.47271 6.69406 5.12904 5.97166 3.75388C5.51718 2.891 5.72358 2.29895 6.6107 1.92314C8.11306 1.2891 9.63725 0.70964 11.1555 0.115488C11.7608 -0.121753 12.3105 -0.0146796 12.5646 0.655054C12.8404 1.38777 12.4514 1.83706 11.8243 2.12469C11.4135 2.31364 10.9352 2.36403 10.5422 2.82381C11.4591 3.3046 12.3502 3.73289 13.1123 4.40682C15.8709 6.85061 16.77 10.8858 15.3033 14.3919C13.928 17.6839 10.3854 19.8275 7.08503 19.3656C3.44524 18.8575 0.5596 15.9141 0.0475682 12.1707C-0.00800115 11.7592 -0.00998577 11.333 0.011845 10.9152C0.0396297 10.363 0.321446 9.97464 0.84737 9.90535C1.42489 9.82977 1.79006 10.1762 1.93296 10.7493C2.01631 11.0853 2.04013 11.438 2.07783 11.7844C2.40927 14.8874 4.98133 17.2367 8.03368 17.2241C11.0066 17.2115 13.6422 14.7698 13.9002 11.7886C14.1979 8.36224 12.2966 5.40617 9.37329 4.76373C9.28597 4.74484 9.18475 4.78473 8.90095 4.82252V4.82042Z" fill="white"/>
</g>
<defs>
<clipPath id="clip0_23_1343">
<rect width="16" height="19.4286" fill="white"/>
</clipPath>
</defs>
</svg>
