<svg width="355" height="355" viewBox="0 0 355 355" fill="none" xmlns="http://www.w3.org/2000/svg">
<path d="M350.778 3.22944C348.081 0.845525 344.508 -0.29926 340.927 0.0721823L112.713 25.4291C106.289 26.14 101.428 31.569 101.429 38.0314V263.977C89.9381 257.101 76.7845 253.501 63.3933 253.567C28.4384 253.568 0 276.313 0 304.282C0 332.251 28.4384 354.996 63.3926 354.996C98.3468 354.996 126.785 332.263 126.785 304.282V112.836L329.642 90.2428V238.582C318.148 231.719 304.994 228.133 291.607 228.211C256.652 228.211 228.214 250.956 228.214 278.925C228.214 306.894 256.652 329.64 291.607 329.64C326.561 329.64 354.999 306.907 354.999 278.925V12.6752C354.999 9.06926 353.464 5.63416 350.778 3.22944Z" fill="#FBF9F9"/>
</svg>
