<svg width="18" height="14" viewBox="0 0 18 14" fill="none" xmlns="http://www.w3.org/2000/svg">
<path d="M7.83273 0.40053C8.4946 -0.0722337 9.41397 0.40089 9.41397 1.21426V12.7858C9.41397 13.5992 8.4946 14.0723 7.83273 13.5995L4.0037 10.8645H2.13922C1.03465 10.8645 0.139221 9.96908 0.139221 8.86451V5.13555C0.139221 4.03098 1.03465 3.13555 2.13922 3.13555H4.0037L7.83273 0.40053Z" fill="#828282"/>
<path d="M11.7277 10.7913C12.6868 9.81507 13.2783 8.47662 13.2783 7C13.2783 5.51718 12.6818 4.17369 11.7156 3.19641" stroke="#828282" stroke-width="1.5" stroke-linecap="round" stroke-linejoin="round"/>
<path d="M13.8797 0.988403C15.4183 2.52694 16.3699 4.6524 16.3699 7.00012C16.3699 9.34784 15.4183 11.4733 13.8797 13.0118" stroke="#828282" stroke-width="1.5" stroke-linecap="round" stroke-linejoin="round"/>
</svg>
