<svg width="16" height="14" viewBox="0 0 16 14" fill="none" xmlns="http://www.w3.org/2000/svg">
<path d="M7.77778 0C6.75639 0 5.74499 0.201178 4.80135 0.592048C3.85771 0.982918 3.00029 1.55582 2.27806 2.27806C0.819442 3.73667 0 5.71498 0 7.77778V13.2222C0 13.4285 0.0819442 13.6263 0.227806 13.7722C0.373667 13.9181 0.571498 14 0.777778 14H3.11111C3.72995 14 4.32344 13.7542 4.76103 13.3166C5.19861 12.879 5.44444 12.2855 5.44444 11.6667V10.1111C5.44444 9.49227 5.19861 8.89878 4.76103 8.46119C4.32344 8.02361 3.72995 7.77778 3.11111 7.77778H1.55556C1.55556 6.12754 2.21111 4.5449 3.378 3.378C4.5449 2.21111 6.12754 1.55556 7.77778 1.55556C9.42801 1.55556 11.0107 2.21111 12.1776 3.378C13.3444 4.5449 14 6.12754 14 7.77778H12.4444C11.8256 7.77778 11.2321 8.02361 10.7945 8.46119C10.3569 8.89878 10.1111 9.49227 10.1111 10.1111V11.6667C10.1111 12.2855 10.3569 12.879 10.7945 13.3166C11.2321 13.7542 11.8256 14 12.4444 14H14.7778C14.9841 14 15.1819 13.9181 15.3278 13.7722C15.4736 13.6263 15.5556 13.4285 15.5556 13.2222V7.77778C15.5556 5.71498 14.7361 3.73667 13.2775 2.27806C11.8189 0.819442 9.84057 0 7.77778 0ZM3.11111 9.33333C3.31739 9.33333 3.51522 9.41528 3.66108 9.56114C3.80694 9.707 3.88889 9.90483 3.88889 10.1111V11.6667C3.88889 11.8729 3.80694 12.0708 3.66108 12.2166C3.51522 12.3625 3.31739 12.4444 3.11111 12.4444H1.55556V9.33333H3.11111ZM14 12.4444H12.4444C12.2382 12.4444 12.0403 12.3625 11.8945 12.2166C11.7486 12.0708 11.6667 11.8729 11.6667 11.6667V10.1111C11.6667 9.90483 11.7486 9.707 11.8945 9.56114C12.0403 9.41528 12.2382 9.33333 12.4444 9.33333H14V12.4444Z" fill="#CE036A"/>
</svg>
