<svg width="21" height="22" viewBox="0 0 21 22" fill="none" xmlns="http://www.w3.org/2000/svg">
  <path d="M20.1432 5.34808C20.7699 4.95642 20.7699 4.04375 20.1432 3.65209L15.03 0.456334C14.364 0.0400544 13.5 0.518898 13.5 1.30433V7.69584C13.5 8.48127 14.364 8.96012 15.03 8.54384L20.1432 5.34808Z" fill="#CE036A"/>
  <path d="M0.970078 18.3481C0.34341 17.9564 0.34341 17.0438 0.970078 16.6521L6.08328 13.4563C6.74933 13.0401 7.61328 13.5189 7.61328 14.3043V20.6958C7.61328 21.4813 6.74933 21.9601 6.08328 21.5438L0.970078 18.3481Z" fill="#CE036A"/>
  <path d="M2.5 10.3042V10.3042C2.5 6.99049 5.18629 4.3042 8.5 4.3042V4.3042H13.5" stroke="#CE036A" stroke-width="2" stroke-linecap="round" stroke-linejoin="round"/>
  <path d="M17.5 11.3042V11.3042C17.5 14.6179 14.8137 17.3042 11.5 17.3042V17.3042H6.5" stroke="#CE036A" stroke-width="2" stroke-linecap="round" stroke-linejoin="round"/>
</svg>
