<svg width="16" height="16" viewBox="0 0 16 16" fill="none" xmlns="http://www.w3.org/2000/svg">
<g id="align center / 24 / Outline">
<path id="Vector" d="M3.33331 5.33333H12.6666C12.8435 5.33333 13.013 5.2631 13.1381 5.13807C13.2631 5.01305 13.3333 4.84348 13.3333 4.66667C13.3333 4.48986 13.2631 4.32029 13.1381 4.19526C13.013 4.07024 12.8435 4 12.6666 4H3.33331C3.1565 4 2.98693 4.07024 2.86191 4.19526C2.73688 4.32029 2.66665 4.48986 2.66665 4.66667C2.66665 4.84348 2.73688 5.01305 2.86191 5.13807C2.98693 5.2631 3.1565 5.33333 3.33331 5.33333ZM14 7.33333H1.99998C1.82317 7.33333 1.6536 7.40357 1.52858 7.5286C1.40355 7.65362 1.33331 7.82319 1.33331 8C1.33331 8.17681 1.40355 8.34638 1.52858 8.4714C1.6536 8.59643 1.82317 8.66667 1.99998 8.66667H14C14.1768 8.66667 14.3464 8.59643 14.4714 8.4714C14.5964 8.34638 14.6666 8.17681 14.6666 8C14.6666 7.82319 14.5964 7.65362 14.4714 7.5286C14.3464 7.40357 14.1768 7.33333 14 7.33333ZM12.6666 10.6667H3.33331C3.1565 10.6667 2.98693 10.7369 2.86191 10.8619C2.73688 10.987 2.66665 11.1565 2.66665 11.3333C2.66665 11.5101 2.73688 11.6797 2.86191 11.8047C2.98693 11.9298 3.1565 12 3.33331 12H12.6666C12.8435 12 13.013 11.9298 13.1381 11.8047C13.2631 11.6797 13.3333 11.5101 13.3333 11.3333C13.3333 11.1565 13.2631 10.987 13.1381 10.8619C13.013 10.7369 12.8435 10.6667 12.6666 10.6667Z" fill="#BDBDBD"/>
</g>
</svg>
