<svg width="23" height="22" viewBox="0 0 23 22" fill="none" xmlns="http://www.w3.org/2000/svg">
  <path d="M15.3865 16.8041C13.8094 16.8041 12.3331 16.1866 11.2377 15.1387" stroke="#CE036A" stroke-width="2" stroke-linecap="round" stroke-linejoin="round"/>
  <path d="M6.54135 6.85616C5.17536 5.56428 3.34297 4.8042 1.3866 4.8042" stroke="#CE036A" stroke-width="2" stroke-linecap="round" stroke-linejoin="round"/>
  <path d="M22.0298 17.8481C22.6565 17.4564 22.6565 16.5438 22.0298 16.1521L16.9166 12.9563C16.2505 12.5401 15.3866 13.0189 15.3866 13.8043V20.1958C15.3866 20.9813 16.2505 21.4601 16.9166 21.0438L22.0298 17.8481Z" fill="#CE036A"/>
  <path d="M15.3866 4.8042V4.8042C12.9644 4.8042 10.7798 6.26063 9.84814 8.49651L8.30967 12.1888C7.14515 14.9837 4.41435 16.8042 1.3866 16.8042V16.8042" stroke="#CE036A" stroke-width="2" stroke-linecap="round" stroke-linejoin="round"/>
  <path d="M21.0298 5.84808C21.6565 5.45642 21.6565 4.54375 21.0298 4.15209L15.9166 0.956334C15.2505 0.540054 14.3866 1.0189 14.3866 1.80433V8.19584C14.3866 8.98127 15.2505 9.46012 15.9166 9.04384L21.0298 5.84808Z" fill="#CE036A"/>
</svg>